# xmcd CD database file
#
# Track frame offsets:
#	150
#	16029
#	25335
#	40944
#	52501
#	71005
#	83760
#	100684
#	111918
#	126480
#	144643
#	164680
#	174638
#	191122
#
# Disc length: 2674 seconds
#
# Revision: 0
# Processed by: cddbd v1.4PL0 Copyright (c) Steve Scherf et al.
# Submitted via: CDex 1.50beta10
#
DISCID=bc0a700e
DTITLE=Colin Farr - Mallee Vale
DYEAR=1900
DGENRE=Country
TTITLE0=The Old Homestead
TTITLE1=I'll Take His Hand
TTITLE2=North Island Jounet
TTITLE3=My Harvest Song
TTITLE4=From Earth To Heaven
TTITLE5=I'm Not The One That She Loves
TTITLE6=My Northern Mallee Home
TTITLE7=Yodelling Lullaby
TTITLE8=While There's Still Time
TTITLE9=The Riverland Of South Australia
TTITLE10=A Tree Of Love
TTITLE11=Christmas Time
TTITLE12=New Zealand, Land Of Beauty
TTITLE13=My Valentine
EXTD=
EXTT0=
EXTT1=
EXTT2=
EXTT3=
EXTT4=
EXTT5=
EXTT6=
EXTT7=
EXTT8=
EXTT9=
EXTT10=
EXTT11=
EXTT12=
EXTT13=
PLAYORDER=
